<?xml version="1.0" encoding="utf-8"?>
<!-- Generator: Adobe Illustrator 18.0.0, SVG Export Plug-In . SVG Version: 6.00 Build 0)  -->
<!DOCTYPE svg PUBLIC "-//W3C//DTD SVG 1.1//EN" "http://www.w3.org/Graphics/SVG/1.1/DTD/svg11.dtd">
<svg version="1.1" id="Layer_1" xmlns="http://www.w3.org/2000/svg" xmlns:xlink="http://www.w3.org/1999/xlink" x="0px" y="0px"
	 viewBox="0 -3.6 217.5 67.6" enable-background="new 0 -3.6 217.5 67.6" xml:space="preserve">
<g>
	<circle fill="#FFFFFF" cx="34.1" cy="30.5" r="28.8"/>
	<path d="M33.7-1.5c9,0,16.6,3.1,22.9,9.4c3,3,5.3,6.4,6.9,10.3c1.6,3.9,2.3,8,2.3,12.3c0,4.4-0.8,8.5-2.3,12.3
		c-1.5,3.8-3.8,7.2-6.8,10.1C53.5,56,50,58.4,46,60c-4,1.6-8.1,2.5-12.3,2.5s-8.3-0.8-12.1-2.4c-3.9-1.6-7.3-4-10.4-7
		s-5.4-6.5-7-10.4s-2.4-7.9-2.4-12.2c0-4.2,0.8-8.3,2.4-12.2s4-7.4,7.1-10.5C17.4,1.6,24.9-1.5,33.7-1.5z M33.8,4.3
		c-7.3,0-13.5,2.6-18.5,7.7c-2.5,2.6-4.4,5.4-5.8,8.6c-1.4,3.2-2,6.5-2,10c0,3.4,0.7,6.7,2,9.9c1.4,3.2,3.3,6,5.8,8.5
		c2.5,2.5,5.4,4.4,8.5,5.7c3.2,1.3,6.5,2,9.9,2c3.4,0,6.8-0.7,10-2c3.2-1.3,6.1-3.3,8.7-5.8c5-4.9,7.5-11,7.5-18.3
		c0-3.5-0.6-6.9-1.9-10.1c-1.3-3.2-3.2-6-5.7-8.5C47.3,6.8,41.1,4.3,33.8,4.3z M33.4,25.2l-4.3,2.2c-0.5-1-1-1.6-1.7-2
		c-0.7-0.4-1.3-0.6-1.9-0.6c-2.9,0-4.3,1.9-4.3,5.7c0,1.7,0.4,3.1,1.1,4.1c0.7,1,1.8,1.5,3.2,1.5c1.9,0,3.2-0.9,3.9-2.7l3.9,2
		c-0.8,1.6-2,2.8-3.5,3.7c-1.5,0.9-3.1,1.3-4.9,1.3c-2.9,0-5.2-0.9-6.9-2.6c-1.8-1.8-2.6-4.2-2.6-7.3c0-3,0.9-5.5,2.7-7.3
		c1.8-1.8,4-2.7,6.7-2.7C28.9,20.6,31.7,22.1,33.4,25.2z M51.9,25.2l-4.2,2.2c-0.5-1-1-1.6-1.7-2c-0.7-0.4-1.3-0.6-1.9-0.6
		c-2.9,0-4.3,1.9-4.3,5.7c0,1.7,0.4,3.1,1.1,4.1s1.8,1.5,3.2,1.5c1.9,0,3.2-0.9,3.9-2.7l4,2c-0.9,1.6-2.1,2.8-3.5,3.7
		c-1.5,0.9-3.1,1.3-4.9,1.3c-2.9,0-5.2-0.9-6.9-2.6c-1.7-1.8-2.6-4.2-2.6-7.3c0-3,0.9-5.5,2.7-7.3c1.8-1.8,4-2.7,6.7-2.7
		C47.4,20.6,50.2,22.1,51.9,25.2z"/>
</g>
<g>
	<circle fill="#FFFFFF" cx="108.5" cy="30.8" r="28.3"/>
	<g>
		<path d="M108.3-1.5c9,0,16.6,3.1,22.7,9.3c6.2,6.2,9.3,13.8,9.3,22.7c0,9-3,16.5-9.1,22.5c-6.5,6.4-14.1,9.5-22.9,9.5
			c-8.6,0-16.2-3.1-22.5-9.4c-6.3-6.3-9.4-13.8-9.4-22.6c0-8.8,3.1-16.3,9.4-22.7C92,1.6,99.5-1.5,108.3-1.5z M108.4,4.3
			c-7.3,0-13.4,2.6-18.5,7.7c-5.2,5.3-7.8,11.5-7.8,18.6c0,7.1,2.6,13.2,7.8,18.4c5.2,5.2,11.4,7.8,18.5,7.8
			c7.1,0,13.3-2.6,18.6-7.8c5-4.8,7.5-11,7.5-18.3c0-7.3-2.6-13.5-7.7-18.6C121.9,6.8,115.7,4.3,108.4,4.3z M117,22.6v13.1h-3.7
			v15.5h-9.9V35.6h-3.7V22.6c0-0.6,0.2-1.1,0.6-1.5c0.4-0.4,0.9-0.6,1.5-0.6H115c0.5,0,1,0.2,1.4,0.6C116.8,21.5,117,22,117,22.6z
			 M103.9,14.3c0-3,1.5-4.5,4.5-4.5s4.5,1.5,4.5,4.5c0,3-1.5,4.5-4.5,4.5S103.9,17.3,103.9,14.3z"/>
	</g>
</g>
<g>
	<circle fill="#FFFFFF" cx="182.4" cy="30.6" r="29.1"/>
	<g>
		<path d="M182.9-1.5c9,0,16.5,3.1,22.7,9.3c6.2,6.2,9.3,13.7,9.3,22.7c0,9-3,16.5-9.1,22.5c-6.4,6.3-14.1,9.5-22.9,9.5
			c-8.6,0-16.2-3.1-22.5-9.4c-6.3-6.3-9.4-13.8-9.4-22.6c0-8.7,3.1-16.3,9.4-22.7C166.6,1.6,174.1-1.5,182.9-1.5z M183.1,4.3
			c-7.3,0-13.4,2.6-18.5,7.7c-5.2,5.3-7.8,11.5-7.8,18.5c0,7.1,2.6,13.3,7.8,18.4c5.2,5.2,11.4,7.8,18.5,7.8
			c7.1,0,13.3-2.6,18.6-7.8c5-4.9,7.5-11,7.5-18.3c0-7.3-2.6-13.5-7.7-18.5C196.5,6.8,190.3,4.3,183.1,4.3z M168.8,26
			c0.6-3.9,2.2-7,4.7-9.1c2.6-2.2,5.7-3.2,9.3-3.2c5,0,9,1.6,12,4.9c3,3.2,4.5,7.4,4.5,12.5c0,4.9-1.5,9-4.6,12.3
			c-3.1,3.3-7.1,4.9-12,4.9c-3.6,0-6.7-1.1-9.4-3.3c-2.6-2.2-4.2-5.3-4.7-9.3h8.1c0.2,3.9,2.5,5.8,7,5.8c2.2,0,4.1-1,5.4-2.9
			c1.4-1.9,2.1-4.5,2.1-7.8c0-3.4-0.6-6-1.9-7.7c-1.3-1.8-3.1-2.7-5.4-2.7c-4.3,0-6.7,1.9-7.2,5.7h2.3l-6.3,6.3l-6.3-6.3L168.8,26
			L168.8,26z"/>
	</g>
</g>
</svg>
