<?xml version="1.0" encoding="utf-8"?>
<!-- Generator: Adobe Illustrator 15.0.0, SVG Export Plug-In . SVG Version: 6.00 Build 0)  -->
<!DOCTYPE svg PUBLIC "-//W3C//DTD SVG 1.1//EN" "http://www.w3.org/Graphics/SVG/1.1/DTD/svg11.dtd">
<svg version="1.1" id="Layer_1" xmlns="http://www.w3.org/2000/svg" xmlns:xlink="http://www.w3.org/1999/xlink" x="0px" y="0px"
	 width="948.141px" height="948.141px" viewBox="0 0 948.141 948.141" enable-background="new 0 0 948.141 948.141"
	 xml:space="preserve">
<rect fill="#217F92" width="948.141" height="948.141"/>
<g>
	<path fill="#FFFFFF" d="M306.42,241.347h216.076c34.748,0,63.108,5.038,85.059,15.091c21.951,10.064,38.864,22.636,50.761,37.728
		c11.886,15.091,20,31.554,24.352,49.389c4.341,17.835,6.517,34.298,6.517,49.389c0,15.091-2.176,31.447-6.517,49.046
		c-4.352,17.61-12.465,33.955-24.352,49.046c-11.897,15.091-28.81,27.556-50.761,37.385c-21.951,9.839-50.311,14.748-85.059,14.748
		H392.165V731.12H306.42V241.347z M392.165,473.2h125.53c9.604,0,19.432-1.372,29.496-4.116
		c10.054-2.744,19.314-7.203,27.781-13.376c8.457-6.173,15.316-14.405,20.579-24.694c5.252-10.29,7.889-23.205,7.889-38.756
		c0-16.002-2.293-29.261-6.859-39.786c-4.577-10.514-10.75-18.864-18.521-25.038c-7.781-6.173-16.699-10.396-26.752-12.69
		c-10.064-2.283-20.814-3.43-32.24-3.43H392.165V473.2z"/>
</g>
</svg>
